<svg xmlns="http://www.w3.org/2000/svg" xmlns:xlink="http://www.w3.org/1999/xlink" version="1.1" data-diagram-type="DESCRIPTION" style="width:2008px;height:800px;background:#FFFFFF;" width="2008px" height="800px" viewBox="0 0 2008 800" zoomAndPan="magnify" preserveAspectRatio="none" contentStyleType="text/css"><?plantuml 1.2026.8?><defs/><g font-family="sans-serif" lengthAdjust="spacing"><g class="title" data-source-line="1"><text x="888.443" y="24.966" fill="#000" font-size="14" textLength="224.503" font-weight="700" font-family="Arial">FullTank - IAM Bounded Context</text></g><!--cluster platform--><g class="cluster" data-qualified-name="platform" id="ent0003" data-source-line="12"><rect x="263.23" y="343.027" width="1731.16" height="294" fill="none" style="stroke:#334155;stroke-width:1;" rx="2.5" ry="2.5"/><text x="1066.601" y="359.993" fill="#000" font-size="14" textLength="124.418" font-weight="700" font-family="Arial">FullTank Platform</text></g><!--cluster iam--><g class="cluster" data-qualified-name="platform.iam" id="ent0004" data-source-line="13"><rect x="295.23" y="435.027" width="1248.4" height="166" fill="#E8F1FF" style="stroke:#334155;stroke-width:1;" rx="2.5" ry="2.5"/><text x="842.745" y="451.993" fill="#000" font-size="14" textLength="153.369" font-weight="700" font-family="Arial">IAM Bounded Context</text><text x="802.754" y="471.061" fill="#000" font-size="14" textLength="233.351" font-weight="700" font-family="Arial">Identity and Access Management</text></g><!--entity db--><g class="entity" data-qualified-name="platform.db" id="ent0008" data-source-line="18"><path d="M1888.63,544.457 C1888.63,534.457 1933.511,534.457 1933.511,534.457 C1933.511,534.457 1978.392,534.457 1978.392,544.457 L1978.392,591.593 C1978.392,601.593 1933.511,601.593 1933.511,601.593 C1933.511,601.593 1888.63,601.593 1888.63,591.593 L1888.63,544.457" style="stroke:#181818;stroke-width:0.5;" fill="#FFF4D6"/><path d="M1888.63,544.457 C1888.63,554.457 1933.511,554.457 1933.511,554.457 C1933.511,554.457 1978.392,554.457 1978.392,544.457" style="stroke:#181818;stroke-width:0.5;" fill="none"/><text x="1898.63" y="573.423" fill="#000" font-size="14" textLength="45.794" font-family="Arial">MySQL</text><text x="1898.63" y="592.491" fill="#000" font-size="14" textLength="69.762" font-family="Arial">IAM tables</text></g><!--entity smtp--><g class="entity" data-qualified-name="platform.smtp" id="ent0009" data-source-line="19"><path d="M878,381.487 L984.152,381.487 C989.152,381.487 989.152,396.021 989.152,396.021 C989.152,396.021 989.152,410.555 984.152,410.555 L878,410.555 C873,410.555 873,396.021 873,396.021 C873,396.021 873,381.487 878,381.487" style="stroke:#181818;stroke-width:0.5;" fill="#FDE2E2"/><path d="M984.152,381.487 C979.152,381.487 979.152,396.021 979.152,396.021 C979.152,410.555 984.152,410.555 984.152,410.555" style="stroke:#181818;stroke-width:0.5;" fill="none"/><text x="878" y="401.453" fill="#000" font-size="14" textLength="96.152" font-family="Arial">SMTP provider</text></g><!--entity auth--><g class="entity" data-qualified-name="platform.iam.auth" id="ent0005" data-source-line="14"><rect x="319.23" y="518.957" width="239.477" height="58.136" fill="#DCEBFF" style="stroke:#334155;stroke-width:0.5;" rx="2.5" ry="2.5"/><text x="329.23" y="543.923" fill="#000" font-size="14" textLength="96.88" font-family="Arial">Authentication</text><text x="329.23" y="562.991" fill="#000" font-size="14" textLength="219.477" font-family="Arial">Sign in / Sign up / Password reset</text></g><!--entity directory--><g class="entity" data-qualified-name="platform.iam.directory" id="ent0006" data-source-line="15"><rect x="1318.44" y="507.957" width="201.187" height="58.136" fill="#DCEBFF" style="stroke:#334155;stroke-width:0.5;" rx="2.5" ry="2.5"/><text x="1328.44" y="532.923" fill="#000" font-size="14" textLength="94.934" font-family="Arial">User Directory</text><text x="1328.44" y="551.991" fill="#000" font-size="14" textLength="181.187" font-family="Arial">Users, roles and companies</text></g><!--entity authorization--><g class="entity" data-qualified-name="platform.iam.authorization" id="ent0007" data-source-line="16"><rect x="817.39" y="507.957" width="227.367" height="58.136" fill="#DCEBFF" style="stroke:#334155;stroke-width:0.5;" rx="2.5" ry="2.5"/><text x="827.39" y="532.923" fill="#000" font-size="14" textLength="89.39" font-family="Arial">Authorization</text><text x="827.39" y="551.991" fill="#000" font-size="14" textLength="207.367" font-family="Arial">JWT, ownership and role checks</text></g><!--entity client--><g class="entity" data-qualified-name="client" id="ent0001" data-source-line="10"><ellipse cx="70.113" cy="595.987" rx="8" ry="8" fill="#F1F1F1" style="stroke:#181818;stroke-width:0.5;"/><path d="M70.113,603.987 L70.113,630.987 M57.113,611.987 L83.113,611.987 M70.113,630.987 L57.113,645.987 M70.113,630.987 L83.113,645.987" style="stroke:#181818;stroke-width:0.5;" fill="none"/><text x="6" y="662.453" fill="#000" font-size="14" textLength="128.225" font-family="Arial">Mobile / Web Client</text></g><!--entity admin--><g class="entity" data-qualified-name="admin" id="ent0002" data-source-line="11"><ellipse cx="931.076" cy="717.987" rx="8" ry="8" fill="#F1F1F1" style="stroke:#181818;stroke-width:0.5;"/><path d="M931.076,725.987 L931.076,752.987 M918.076,733.987 L944.076,733.987 M931.076,752.987 L918.076,767.987 M931.076,752.987 L944.076,767.987" style="stroke:#181818;stroke-width:0.5;" fill="none"/><text x="855.07" y="784.453" fill="#000" font-size="14" textLength="152.011" font-family="Arial">Platform Administrator</text></g><!--entity ordering--><g class="entity" data-qualified-name="ordering" id="ent0010" data-source-line="21"><rect x="1379.1" y="213.487" width="79.878" height="39.068" fill="#EAF7EE" style="stroke:#334155;stroke-width:0.5;" rx="2.5" ry="2.5"/><text x="1389.1" y="238.453" fill="#000" font-size="14" textLength="59.878" font-family="Arial">Ordering</text></g><!--entity inventory--><g class="entity" data-qualified-name="inventory" id="ent0011" data-source-line="22"><rect x="1377.29" y="287.487" width="83.504" height="39.068" fill="#EAF7EE" style="stroke:#334155;stroke-width:0.5;" rx="2.5" ry="2.5"/><text x="1387.29" y="312.453" fill="#000" font-size="14" textLength="63.504" font-family="Arial">Inventory</text></g><!--entity fulfillment--><g class="entity" data-qualified-name="fulfillment" id="ent0012" data-source-line="23"><rect x="1374.1" y="65.487" width="89.874" height="39.068" fill="#EAF7EE" style="stroke:#334155;stroke-width:0.5;" rx="2.5" ry="2.5"/><text x="1384.1" y="90.453" fill="#000" font-size="14" textLength="69.874" font-family="Arial">Fulfillment</text></g><!--entity reporting--><g class="entity" data-qualified-name="reporting" id="ent0013" data-source-line="24"><rect x="1376.34" y="139.487" width="85.394" height="39.068" fill="#EAF7EE" style="stroke:#334155;stroke-width:0.5;" rx="2.5" ry="2.5"/><text x="1386.34" y="164.453" fill="#000" font-size="14" textLength="65.394" font-family="Arial">Reporting</text></g><g class="entity" data-qualified-name="GMN26" id="ent0027" data-source-line="40"><path d="M796.7,193.047 L796.7,326.989 L1065.441,326.989 L1065.441,203.047 L1055.441,193.047 L796.7,193.047" style="stroke:#181818;stroke-width:0.5;" fill="#FEFFDD"/><path d="M1055.441,193.047 L1055.441,203.047 L1065.441,203.047 L1055.441,193.047" style="stroke:#181818;stroke-width:1;" fill="#FEFFDD"/><text x="802.7" y="211.944" fill="#000" font-size="13" textLength="105.235" font-family="Arial">Public endpoints:</text><text x="802.7" y="229.65" fill="#000" font-size="13" textLength="139.802" font-family="Arial">/authentication/sign-in</text><text x="802.7" y="247.356" fill="#000" font-size="13" textLength="144.443" font-family="Arial">/authentication/sign-up</text><text x="802.7" y="265.062" fill="#000" font-size="13" textLength="204.945" font-family="Arial">/authentication/password-reset/*</text><text x="802.7" y="282.768" fill="#000" font-size="13" font-family="Arial"> </text><text x="802.7" y="300.474" fill="#000" font-size="13" textLength="198.952" font-family="Arial">Protected endpoints use the JWT</text><text x="802.7" y="318.18" fill="#000" font-size="13" textLength="247.741" font-family="Arial">and CurrentUserAccess ownership rules.</text></g><!--link client to auth--><g class="link" data-entity-1="ent0001" data-entity-2="ent0005" id="lnk14" data-source-line="26" data-link-type="dependency"><path d="M134.59,613.357 C185.25,602.447 252.742,587.909 314.102,574.699" style="stroke:#475569;stroke-width:1;" fill="none" id="client-to-auth"/><polygon points="318.99,573.647,309.35,571.631,314.102,574.699,311.033,579.452,318.99,573.647" fill="#475569" style="stroke:#475569;stroke-width:1;stroke-linejoin:miter;stroke-miterlimit:10;"/><text x="165.23" y="585.784" fill="#000" font-size="13" textLength="81.406" font-family="Arial">HTTPS / JSON</text></g><!--link client to directory--><g class="link" data-entity-1="ent0001" data-entity-2="ent0006" id="lnk15" data-source-line="27" data-link-type="dependency"><path d="M134.48,633.027 C352.95,652.847 1073.19,710.737 1288.44,634.027 C1327.89,619.967 1361.688,592.854 1386.088,569.764" style="stroke:#475569;stroke-width:1;" fill="none" id="client-to-directory"/><polygon points="1389.72,566.327,1380.434,569.608,1386.088,569.764,1385.932,575.418,1389.72,566.327" fill="#475569" style="stroke:#475569;stroke-width:1;stroke-linejoin:miter;stroke-miterlimit:10;"/><text x="637.2" y="661.074" fill="#000" font-size="13" textLength="81.406" font-family="Arial">HTTPS / JSON</text></g><!--link admin to directory--><g class="link" data-entity-1="ent0002" data-entity-2="ent0006" id="lnk16" data-source-line="28" data-link-type="dependency"><path d="M1007.51,754.677 C1083.41,756.907 1201.39,750.637 1288.44,701.027 C1343.62,669.577 1381.595,608.913 1401.575,570.873" style="stroke:#475569;stroke-width:1;" fill="none" id="admin-to-directory"/><polygon points="1403.9,566.447,1396.174,572.555,1401.575,570.873,1403.256,576.275,1403.9,566.447" fill="#475569" style="stroke:#475569;stroke-width:1;stroke-linejoin:miter;stroke-miterlimit:10;"/><text x="1115.94" y="696.924" fill="#000" font-size="13" textLength="152.607" font-family="Arial">protected administration</text></g><!--link auth to authorization--><g class="link" data-entity-1="ent0005" data-entity-2="ent0007" id="lnk17" data-source-line="29" data-link-type="dependency"><path d="M558.9,548.897 C568.98,548.947 579.02,548.987 588.7,549.027 C667.81,549.287 687.64,551.927 766.7,549.027 C783.04,548.427 795.3,547.809 812.21,546.719" style="stroke:#475569;stroke-width:1;" fill="none" id="auth-to-authorization"/><polygon points="817.2,546.397,807.961,542.984,812.21,546.719,808.476,550.968,817.2,546.397" fill="#475569" style="stroke:#475569;stroke-width:1;stroke-linejoin:miter;stroke-miterlimit:10;"/><text x="589.7" y="544.924" fill="#000" font-size="13" textLength="176.982" font-family="Arial">authenticates and issues JWT</text></g><!--link authorization to directory--><g class="link" data-entity-1="ent0007" data-entity-2="ent0006" id="lnk18" data-source-line="30" data-link-type="dependency"><path d="M1045.09,537.027 C1127.68,537.027 1233.65,537.027 1313.02,537.027" style="stroke:#475569;stroke-width:1;" fill="none" id="authorization-to-directory"/><polygon points="1318.02,537.027,1309.02,533.027,1313.02,537.027,1309.02,541.027,1318.02,537.027" fill="#475569" style="stroke:#475569;stroke-width:1;stroke-linejoin:miter;stroke-miterlimit:10;"/><text x="1096.44" y="532.924" fill="#000" font-size="13" textLength="191.113" font-family="Arial">loads user roles and ownership</text></g><!--link directory to db--><g class="link" data-entity-1="ent0006" data-entity-2="ent0008" id="lnk19" data-source-line="31" data-link-type="dependency"><path d="M1520.06,543.077 C1631.63,549.827 1802.089,560.135 1883.409,565.055" style="stroke:#475569;stroke-width:1;" fill="none" id="directory-to-db"/><polygon points="1888.4,565.357,1879.658,560.821,1883.409,565.055,1879.175,568.806,1888.4,565.357" fill="#475569" style="stroke:#475569;stroke-width:1;stroke-linejoin:miter;stroke-miterlimit:10;"/><text x="1568.63" y="542.084" fill="#000" font-size="13" textLength="289.822" font-family="Arial">persists users, roles, buyer/provider companies</text></g><!--link auth to db--><g class="link" data-entity-1="ent0005" data-entity-2="ent0008" id="lnk20" data-source-line="32" data-link-type="dependency"><path d="M559.06,563.067 C628.29,571.057 717.28,580.027 796.7,584.027 C1221.4,605.397 1731.468,579.704 1883.368,570.974" style="stroke:#475569;stroke-width:1;" fill="none" id="auth-to-db"/><polygon points="1888.36,570.687,1879.145,567.21,1883.368,570.974,1879.604,575.197,1888.36,570.687" fill="#475569" style="stroke:#475569;stroke-width:1;stroke-linejoin:miter;stroke-miterlimit:10;"/><text x="1115.94" y="587.404" fill="#000" font-size="13" textLength="152.971" font-family="Arial">persists reset token hash</text></g><!--link auth to smtp--><g class="link" data-entity-1="ent0005" data-entity-2="ent0009" id="lnk21" data-source-line="33" data-link-type="dependency"><path d="M546.82,518.537 C550.84,517.357 554.81,516.187 558.7,515.027 C677.24,479.577 811.045,435.674 880.625,412.544" style="stroke:#475569;stroke-width:1;" fill="none" id="auth-to-smtp"/><polygon points="885.37,410.967,875.568,410.01,880.625,412.544,878.091,417.602,885.37,410.967" fill="#475569" style="stroke:#475569;stroke-width:1;stroke-linejoin:miter;stroke-miterlimit:10;"/><text x="601.2" y="447.584" fill="#000" font-size="13" textLength="153.543" font-family="Arial">sends one-time reset link</text></g><!--link authorization to ordering--><g class="link" data-entity-1="ent0007" data-entity-2="ent0010" id="lnk22" data-source-line="34" data-link-type="dependency"><path d="M1045.03,519.457 C1052.54,515.277 1059.47,510.187 1065.44,504.027 C1109.73,458.327 1054.87,413.037 1095.44,364.027 C1168.49,275.787 1305.205,247.069 1373.875,237.759" style="stroke:#475569;stroke-width:1;stroke-dasharray:7,7;" fill="none" id="authorization-to-ordering"/><polygon points="1378.83,237.087,1369.374,234.332,1373.875,237.759,1370.449,242.26,1378.83,237.087" fill="#475569" style="stroke:#475569;stroke-width:1;stroke-linejoin:miter;stroke-miterlimit:10;"/><text x="1135.44" y="251.934" fill="#000" font-size="13" textLength="113.789" font-family="Arial">protects resources</text></g><!--link authorization to inventory--><g class="link" data-entity-1="ent0007" data-entity-2="ent0011" id="lnk23" data-source-line="35" data-link-type="dependency"><path d="M1045.17,511.307 C1052.09,509.037 1058.9,506.607 1065.44,504.027 C1192.3,453.937 1325.771,369.012 1384.571,329.772" style="stroke:#475569;stroke-width:1;stroke-dasharray:7,7;" fill="none" id="authorization-to-inventory"/><polygon points="1388.73,326.997,1379.024,328.666,1384.571,329.772,1383.464,335.32,1388.73,326.997" fill="#475569" style="stroke:#475569;stroke-width:1;stroke-linejoin:miter;stroke-miterlimit:10;"/><text x="1135.44" y="386.684" fill="#000" font-size="13" textLength="113.789" font-family="Arial">protects resources</text></g><!--link authorization to fulfillment--><g class="link" data-entity-1="ent0007" data-entity-2="ent0012" id="lnk24" data-source-line="36" data-link-type="dependency"><path d="M1045.05,520.847 C1052.7,516.367 1059.66,510.847 1065.44,504.027 C1119.83,439.947 1037.52,187.917 1095.44,127.027 C1167.36,51.417 1298.566,62.201 1368.766,74.541" style="stroke:#475569;stroke-width:1;stroke-dasharray:7,7;" fill="none" id="authorization-to-fulfillment"/><polygon points="1373.69,75.407,1365.518,69.909,1368.766,74.541,1364.133,77.788,1373.69,75.407" fill="#475569" style="stroke:#475569;stroke-width:1;stroke-linejoin:miter;stroke-miterlimit:10;"/><text x="1135.44" y="62.274" fill="#000" font-size="13" textLength="113.789" font-family="Arial">protects resources</text></g><!--link authorization to reporting--><g class="link" data-entity-1="ent0007" data-entity-2="ent0013" id="lnk25" data-source-line="37" data-link-type="dependency"><path d="M1045.14,520.477 C1052.72,516.077 1059.63,510.667 1065.44,504.027 C1146.37,411.467 1013.19,320.407 1095.44,229.027 C1167.14,149.367 1301.235,148.348 1371.005,153.788" style="stroke:#475569;stroke-width:1;stroke-dasharray:7,7;" fill="none" id="authorization-to-reporting"/><polygon points="1375.99,154.177,1367.328,149.489,1371.005,153.788,1366.706,157.465,1375.99,154.177" fill="#475569" style="stroke:#475569;stroke-width:1;stroke-linejoin:miter;stroke-miterlimit:10;"/><text x="1135.44" y="149.564" fill="#000" font-size="13" textLength="113.789" font-family="Arial">protects resources</text></g><!--link iam to GMN26--><g class="link" data-entity-1="ent0004" data-entity-2="ent0027" id="lnk28" data-source-line="40" data-link-type="association"><path d="M491.532,434.721 C491.977,434.331 492.425,433.94 492.874,433.548 C494.672,431.981 496.502,430.399 498.363,428.806 C502.085,425.621 505.93,422.392 509.88,419.148 C517.78,412.658 526.102,406.106 534.71,399.711 C551.926,386.923 570.285,374.769 588.7,365.027 C653.51,330.737 731.29,305.717 796.22,288.727" style="stroke:#475569;stroke-width:1;stroke-dasharray:7,7;" fill="none" id="iam-GMN26"/></g><?plantuml-src ZLHDRnen4BtlhnY5MnM2ya7ISeX4W5KJbOG6gbnocTqrO67ihJzAQPN_th7PBoYHSa3QiT-yUPvvZELMC8YT43EKAsZ3VNyCTyh9Z6KmKDAotpOIR6x1Aj1yiRIGSSrIovMCp8hB73MkmImnKnik5p17OLZZ9iTqXGisjLkgunDHBaGJaAfrhYIJzdr8nkReX8r9pYEk6VGrHz6uxskjDWCbb8RMrKstU_sbSVbS4jufdJ5Tm2ulhywxtIZ2r59uCbO9f-8TU64930GdEIU01jBmMQ8c0krSQIgOhRdancgaym14Vn9Luk6aQccP561voV0t0cYWZtJzLTvdL9lRBQ3Ce9-cp1WOewHkhajzd1xO6dsEp-CuKEwHzfrTUeOK_RHUvPGl9719hmnVBgUl2HgpeSPGdc4xJgGqQ0q7exiuFgJyOPY6OJ20qjjNwMDp2be9Pe9CFqsKd9b0bPN8z_YyHANvdqBXmyli5DH64kcIvu7GKqEwPEdALEggZ0Rj6_qoj9YW8TxnTlhz6tMGsaf7efIJG2kEuwlXDO5_EkO8EHtF9f1hzOkJEGBAh6rEkE7eOdGHlJLd-kGDH2OFC5K4rFz-V3CQDO7tyXSrdjwz6r8P7OEIJ-PSY6gYype-1dzckTAsrA3Bg896EyT2ktsx6sGFlivcaocD-c7wzDYyheTpW0bU_Wz2FR8Ka46nTh_V0g5CMQyUJI_4XVyATt1Z77tIcADzy64neJ0puBpRQczLneXgQ4XCl3ow8asxfDAIfv2uBTETShwrFMlL-zdXRq2xRiKaBD4iQromHGyCawIC5bRRyZKhy8BBrS6BpivkQujKtGi5bDDfeM0VNnlbWmbDitmmfRRCqOH8qb6nwDNSxnVwgqnS8dWAzF9SSMbDZyuwkBTTEePMIfjMu3itBZzoanVBfnswsFaK-LgLpQfoVgH0YS4t4AmmS5eJaLy_nMAijuPsDFcpYDB1F-OV?></g></svg>